<svg xmlns="http://www.w3.org/2000/svg" width="236" height="236" viewBox="0 0 236 236">
  <defs>
    <style>
      .cls-1 {
        fill: #4657c8;
        stroke: #fff;
      }

      .cls-1, .cls-2 {
        stroke-miterlimit: 10;
      }

      .cls-2 {
        fill: #faf7fb;
        stroke: #faf7fb;
      }
    </style>
  </defs>
  <title>Asset O</title>
  <g id="Layer_2" data-name="Layer 2">
    <g id="Layer_1-2" data-name="Layer 1">
      <g>
        <rect class="cls-1" x="0.5" y="0.5" width="235" height="235"/>
        <path class="cls-2" d="M89.08,151.9q-13-4.92-20.46-14.58t-7.5-23.22q0-13.44,7.56-23T89.14,76.48a79.94,79.94,0,0,1,29-5,79.58,79.58,0,0,1,28.86,5q12.9,5,20.4,14.58t7.5,23q0,13.56-7.5,23.22T147,151.9a80.45,80.45,0,0,1-28.86,4.92A81.3,81.3,0,0,1,89.08,151.9Zm36.48-6.72q2-3.48,2.76-12.36.36-4.68.36-18.72t-.6-20q-.36-7.2-2.64-10.92a7.8,7.8,0,0,0-7.32-4.56,8.14,8.14,0,0,0-7.56,4.56q-2,3.6-2.64,10.92-.48,6.24-.48,20,0,15.6.36,18.72.48,8.28,2.64,12.36a8.23,8.23,0,0,0,7.68,4.56A7.89,7.89,0,0,0,125.56,145.18Z"/>
      </g>
    </g>
  </g>
</svg>
