<svg xmlns="http://www.w3.org/2000/svg" width="183" height="227.5" viewBox="0 0 183 227.5">
  <defs>
    <style>
      .cls-1 {
        fill: #2d3a98;
      }

      .cls-2 {
        fill: none;
        stroke: #2d3a98;
        stroke-miterlimit: 10;
        stroke-width: 8px;
      }
    </style>
  </defs>
  <title>Asset 6</title>
  <g id="Layer_2" data-name="Layer 2">
    <g id="Layer_1-2" data-name="Layer 1">
      <g>
        <g>
          <polygon class="cls-1" points="91.11 51.22 72.95 102.78 54.69 51.22 35.55 51.22 35.55 122.31 50.19 122.31 50.19 102.88 48.73 69.38 67.87 122.31 77.93 122.31 97.12 69.33 95.65 102.88 95.65 111.37 110.35 99.83 110.35 51.22 91.11 51.22"/>
          <polygon class="cls-1" points="95.65 128.31 110.35 128.31 110.35 105.83 95.65 117.37 95.65 128.31"/>
          <polygon class="cls-1" points="145.45 99.22 130.81 99.22 130.81 112.16 145.45 100.66 145.45 99.22"/>
          <path class="cls-1" d="M132.81,117.16v36.27q0,5.32-2.49,8.21a8.41,8.41,0,0,1-6.69,2.88q-4.74,0-6.94-2.49t-2.19-7.72H99.75q0,10.5,6.3,16.24t17.58,5.74A26.44,26.44,0,0,0,136,173.45a20.32,20.32,0,0,0,8.47-8,23.56,23.56,0,0,0,3-12V105.66Z"/>
        </g>
        <rect class="cls-2" x="4" y="4" width="175" height="219.5"/>
      </g>
    </g>
  </g>
</svg>
