<svg xmlns="http://www.w3.org/2000/svg" width="225.82" height="433.33" viewBox="0 0 225.82 433.33">
  <title>Asset 5</title>
  <g id="Layer_2" data-name="Layer 2">
    <g id="Layer_1-2" data-name="Layer 1">
      <g>
        <path d="M2.1,11.25H49.73c4.39,0,8,1.26,10.65,3.79S64.43,21,64.43,25.27a14.34,14.34,0,0,1-7.05,12.38,14.49,14.49,0,0,1-7.5,2L27,39.67V63.75H2.1ZM29.63,35.33a9.76,9.76,0,0,0,5-1.32,9.43,9.43,0,0,0,3.6-3.6,9.64,9.64,0,0,0,1.32-4.91,9.83,9.83,0,0,0-1.32-5,9.72,9.72,0,0,0-3.6-3.63,9.51,9.51,0,0,0-5-1.36H27V35.33Z" transform="translate(-2.1 -10.8)"/>
        <path d="M109.57,61.05a28.56,28.56,0,0,1-12.78-9.11A22.94,22.94,0,0,1,92.1,37.42,22.6,22.6,0,0,1,96.82,23a29.41,29.41,0,0,1,12.79-9.11,50.07,50.07,0,0,1,18.11-3.11,49.84,49.84,0,0,1,18,3.11A29,29,0,0,1,158.51,23a22.7,22.7,0,0,1,4.69,14.4,22.94,22.94,0,0,1-4.69,14.52,28.58,28.58,0,0,1-12.75,9.11,50.28,50.28,0,0,1-18,3.07A50.81,50.81,0,0,1,109.57,61.05Zm22.8-4.2c.85-1.45,1.43-4,1.73-7.73q.22-2.92.22-11.7T134,24.9a14.61,14.61,0,0,0-1.65-6.82,4.87,4.87,0,0,0-4.58-2.86A5.07,5.07,0,0,0,123,18.08a17.13,17.13,0,0,0-1.65,6.82q-.3,3.9-.3,12.52c0,6.5.07,10.41.22,11.7a19.56,19.56,0,0,0,1.65,7.73,5.14,5.14,0,0,0,4.8,2.85A4.93,4.93,0,0,0,132.37,56.85Z" transform="translate(-2.1 -10.8)"/>
        <path d="M2.1,106.25H52.28a13,13,0,0,1,6.78,1.84,13.66,13.66,0,0,1,5,5,13.06,13.06,0,0,1,1.84,6.79,14.29,14.29,0,0,1-3,8.84,13.23,13.23,0,0,1-7.57,5.1,12.77,12.77,0,0,1,6.63,4.28,10.91,10.91,0,0,1,2.59,7.12v13.58H39.38V142.47a6.73,6.73,0,0,0-.9-3.75,7,7,0,0,0-2.4-2.32,11.87,11.87,0,0,0-3.38-1.2,25.28,25.28,0,0,0-3.67-.45l-2-.08v24.08H2.1Zm27.53,24.08a9.76,9.76,0,0,0,5-1.32,9.43,9.43,0,0,0,3.6-3.6,9.64,9.64,0,0,0,1.32-4.91,9.83,9.83,0,0,0-1.32-5,9.72,9.72,0,0,0-3.6-3.63,9.51,9.51,0,0,0-5-1.36H27V130.4Z" transform="translate(-2.1 -10.8)"/>
        <path d="M113.85,110.67H94.12v-4.42H159.9v4.42H140.1v48.08H113.85Z" transform="translate(-2.1 -10.8)"/>
        <path d="M74.1,201.25h54.45v4.42H100.43V225.1h13.8v4.5h-13.8v24.15H74.1Z" transform="translate(-2.1 -10.8)"/>
        <path d="M174.3,251.05a28.65,28.65,0,0,1-12.79-9.11,23,23,0,0,1-4.69-14.52A22.56,22.56,0,0,1,161.55,213a29.29,29.29,0,0,1,12.79-9.12,54.08,54.08,0,0,1,36.15,0A29.1,29.1,0,0,1,223.24,213a22.7,22.7,0,0,1,4.68,14.39,23,23,0,0,1-4.68,14.52,28.69,28.69,0,0,1-12.75,9.11,54.86,54.86,0,0,1-36.19,0Zm22.8-4.2c.85-1.45,1.43-4,1.72-7.73.15-2,.23-5.84.23-11.7s-.13-10.07-.38-12.52a14.62,14.62,0,0,0-1.64-6.82,4.9,4.9,0,0,0-4.58-2.86,5.11,5.11,0,0,0-4.73,2.86,17.13,17.13,0,0,0-1.65,6.82q-.3,3.9-.29,12.52,0,9.77.22,11.7a19.56,19.56,0,0,0,1.65,7.73,5.14,5.14,0,0,0,4.8,2.85A4.93,4.93,0,0,0,197.1,246.85Z" transform="translate(-2.1 -10.8)"/>
        <path d="M112.18,296.25H138.5v48H167v4.5H112.18Z" transform="translate(-2.1 -10.8)"/>
        <path d="M195.8,296.25h24.45v52.5H195.8Z" transform="translate(-2.1 -10.8)"/>
        <path d="M112.18,441.05a28.59,28.59,0,0,1-12.79-9.11,22.94,22.94,0,0,1-4.69-14.52A22.56,22.56,0,0,1,99.43,403a29.29,29.29,0,0,1,12.79-9.12,50,50,0,0,1,18.11-3.11,49.79,49.79,0,0,1,18,3.11A29,29,0,0,1,161.11,403a22.65,22.65,0,0,1,4.69,14.39,22.94,22.94,0,0,1-4.69,14.52,28.58,28.58,0,0,1-12.75,9.11,50.22,50.22,0,0,1-18,3.07A50.81,50.81,0,0,1,112.18,441.05Zm22.8-4.2c.85-1.45,1.42-4,1.72-7.73.15-1.95.23-5.84.23-11.7s-.13-10.07-.38-12.52a14.61,14.61,0,0,0-1.65-6.82,4.87,4.87,0,0,0-4.57-2.86,5.1,5.1,0,0,0-4.73,2.86A17.13,17.13,0,0,0,124,404.9q-.3,3.9-.3,12.52,0,9.76.23,11.7a19.56,19.56,0,0,0,1.65,7.73,5.14,5.14,0,0,0,4.8,2.85A4.93,4.93,0,0,0,135,436.85Z" transform="translate(-2.1 -10.8)"/>
      </g>
    </g>
  </g>
</svg>
